# File created by Blade
# Date/Time:  Thu Jan 22 16:21:49 2015
#---------------------------------------------------------
:version 1.10
:name HOM
:units
  mass 1.0
  length 1.000000
  angle deg
:documentation
     Acclaim Skeleton File
:root
   axis xyz
   order TX TY TZ RX RY RZ
   position 0.000000 0.000000 0.000000
   orientation 0 0 0
:bonedata
   begin
      id 1
      name RightUpLeg_dum
      direction -1.000000 0.000000 0.000000
      length 3.766986
      axis 0.0 0.0 0.0 xyz
   end
   begin
      id 2
      name LeftUpLeg_dum
      direction 1.000000 0.000000 0.000000
      length 3.766986
      axis 0.0 0.0 0.0 xyz
   end
   begin
      id 3
      name Spine_dum
      direction 0.000000 1.000000 0.000000
      length 7.779697
      axis 0.0 0.0 0.0 xyz
   end
   begin
      id 4
      name RightUpLeg
      direction 0.000000 -1.000000 0.000000
      length 18.017682
      axis 0.0 0.0 0.0 xyz
      dof rx ry rz
   end
   begin
      id 5
      name RightLeg
      direction 0.000000 -1.000000 0.000000
      length 16.881075
      axis 0.0 0.0 0.0 xyz
      dof rx ry rz
   end
   begin
      id 6
      name RightFoot
      direction 0.000000 -0.258819 0.965926
      length 5.770812
      axis 15.0 0.0 0.0 xyz
      dof rx ry rz
   end
   begin
      id 7
      name RightToeBase
      direction 0.000000 0.000000 1.000000
      length 2.952750
      axis 0.0 0.0 0.0 xyz
      dof rx ry rz
   end
   begin
      id 8
      name LeftUpLeg
      direction 0.000000 -1.000000 0.000000
      length 18.017682
      axis 0.0 0.0 0.0 xyz
      dof rx ry rz
   end
   begin
      id 9
      name LeftLeg
      direction 0.000000 -1.000000 0.000000
      length 16.881075
      axis 0.0 0.0 0.0 xyz
      dof rx ry rz
   end
   begin
      id 10
      name LeftFoot
      direction 0.000000 -0.258819 0.965926
      length 5.770812
      axis 15.0 0.0 0.0 xyz
      dof rx ry rz
   end
   begin
      id 11
      name LeftToeBase
      direction 0.000000 0.000000 1.000000
      length 2.952750
      axis 0.0 0.0 0.0 xyz
      dof rx ry rz
   end
   begin
      id 12
      name Spine
      direction 0.000000 1.000000 0.000000
      length 0.000000
      axis 0.0 0.0 0.0 xyz
      dof rx ry rz
   end
   begin
      id 13
      name Spine_dum1
      direction 0.000000 1.000000 0.000000
      length 10.941760
      axis 0.0 0.0 0.0 xyz
   end
   begin
      id 14
      name Spine_dum2
      direction 0.000000 1.000000 0.000000
      length 10.941760
      axis 0.0 0.0 0.0 xyz
   end
   begin
      id 15
      name Spine_dum3
      direction 0.000000 1.000000 0.000000
      length 16.646042
      axis 0.0 0.0 0.0 xyz
   end
   begin
      id 16
      name RightShoulder
      direction -1.000000 0.000000 0.000000
      length 7.708937
      axis 0.0 0.0 90.0 xyz
      dof rx ry rz
   end
   begin
      id 17
      name RightArm
      direction -1.000000 0.000000 0.000000
      length 11.521345
      axis 0.0 0.0 90.0 xyz
      dof rx ry rz
   end
   begin
      id 18
      name RightForeArm
      direction -1.000000 0.000000 0.000000
      length 10.175898
      axis 0.0 0.0 90.0 xyz
      dof ry rz rx
   end
   begin
      id 19
      name RightHand
      direction -1.000000 0.000000 0.000000
      length 0.000000
      axis 0.0 0.0 90.0 xyz
      dof rx ry rz
   end
   begin
      id 20
      name RightHand_dum1
      direction -1.000000 0.000000 0.000000
      length 3.937000
      axis 0.0 0.0 90.0 xyz
   end
   begin
      id 21
      name RightHand_dum2
      direction 0.000000 0.000000 0.000000
      length 0.000000
      axis 0.0 0.0 90.0 xyz
   end
   begin
      id 22
      name RightHandThumb1
      direction 0.000000 0.000000 1.000000
      length 3.937000
      axis 0.0 0.0 90.0 xyz
      dof rx rz ry
   end
   begin
      id 23
      name LeftShoulder
      direction 1.000000 0.000000 0.000000
      length 7.708937
      axis 0.0 0.0 -90.0 xyz
      dof rx ry rz
   end
   begin
      id 24
      name LeftArm
      direction 1.000000 0.000000 0.000000
      length 11.521345
      axis 0.0 0.0 -90.0 xyz
      dof rx ry rz
   end
   begin
      id 25
      name LeftForeArm
      direction 1.000000 0.000000 0.000000
      length 10.175898
      axis 0.0 0.0 -90.0 xyz
      dof ry rz rx
   end
   begin
      id 26
      name LeftHand
      direction 1.000000 0.000000 0.000000
      length 0.000000
      axis 0.0 0.0 -90.0 xyz
      dof rx ry rz
   end
   begin
      id 27
      name LeftHand_dum1
      direction 1.000000 0.000000 0.000000
      length 3.937000
      axis 0.0 0.0 -90.0 xyz
   end
   begin
      id 28
      name LeftHand_dum2
      direction 0.000000 0.000000 0.000000
      length 0.000000
      axis 0.0 0.0 -90.0 xyz
   end
   begin
      id 29
      name LeftHandThumb1
      direction 0.000000 0.000000 1.000000
      length 3.937000
      axis 0.0 0.0 -90.0 xyz
      dof rx rz ry
   end
   begin
      id 30
      name Head
      direction 0.000000 1.000000 0.000000
      length 4.527550
      axis 0.0 0.0 0.0 xyz
      dof rx ry rz
   end
:hierarchy
   begin
      root RightUpLeg_dum LeftUpLeg_dum Spine_dum
      RightUpLeg_dum RightUpLeg
      LeftUpLeg_dum LeftUpLeg
      Spine_dum Spine
      RightUpLeg RightLeg
      RightLeg RightFoot
      RightFoot RightToeBase
      LeftUpLeg LeftLeg
      LeftLeg LeftFoot
      LeftFoot LeftToeBase
      Spine Spine_dum1 Spine_dum2 Spine_dum3
      Spine_dum1 RightShoulder
      Spine_dum2 LeftShoulder
      Spine_dum3 Head
      RightShoulder RightArm
      RightArm RightForeArm
      RightForeArm RightHand
      RightHand RightHand_dum1 RightHand_dum2
      RightHand_dum2 RightHandThumb1
      LeftShoulder LeftArm
      LeftArm LeftForeArm
      LeftForeArm LeftHand
      LeftHand LeftHand_dum1 LeftHand_dum2
      LeftHand_dum2 LeftHandThumb1
   end

# File created by Blade
# Date/Time:  Thu Jan 22 16:21:39 2015
# Frame Rate: 120.000 fps
#------------------------------------------------------
:FULLY-SPECIFIED
:DEGREES
433
root 19.556231 34.570689 -10.299252 -3.932438 8.569244 -7.855565
RightUpLeg 14.699626 2.548661 29.654818
RightLeg -7.339460 -0.000000 0.000000
RightFoot -8.390200 -10.211008 3.822109
RightToeBase 5.693876 -0.000000 -0.000000
LeftUpLeg -25.131479 -23.175905 -1.803412
LeftLeg 16.327333 -0.000000 -0.000000
LeftFoot 9.928847 11.989744 -7.994900
LeftToeBase 9.768988 -0.000000 -0.000000
Spine 22.041387 -3.996633 -49.000466
RightShoulder -9.139091 4.932917 -48.169164
RightArm 27.652754 56.970158 10.840373
RightForeArm -6.689017 -0.000000 18.302699
RightHand 16.088134 -0.000000 -39.128778
RightHandThumb1 -24.326973 -0.000000 -32.862282
LeftShoulder -6.811880 35.698096 1.186863
LeftArm 35.801564 -9.685761 -62.616408
LeftForeArm 36.044922 0.000000 7.354274
LeftHand -19.080867 -0.000000 -8.485707
LeftHandThumb1 -26.253704 0.000000 33.147579
Head 21.628628 59.652141 -32.249797
434
root 19.565949 34.573908 -10.309335 -4.064854 8.501328 -7.872302
RightUpLeg 14.808722 2.541042 29.666681
RightLeg -7.305902 -0.000000 0.000000
RightFoot -8.402220 -10.254333 3.822306
RightToeBase 5.663739 -0.000000 -0.000000
LeftUpLeg -24.942420 -23.095027 -1.849758
LeftLeg 16.214365 -0.000000 -0.000000
LeftFoot 9.993998 11.980030 -8.004898
LeftToeBase 9.813740 -0.000000 -0.000000
Spine 22.025698 -3.955917 -48.964165
RightShoulder -9.209990 4.893377 -48.136387
RightArm 28.755690 57.671522 11.382511
RightForeArm -6.747018 -0.000000 18.195928
RightHand 16.127634 -0.000000 -39.332697
RightHandThumb1 -24.326973 -0.000000 -32.862282
LeftShoulder -6.804437 35.748205 1.226785
LeftArm 35.738684 -9.700922 -62.743557
LeftForeArm 36.025446 0.000000 7.433802
LeftHand -19.142233 -0.000000 -8.448648
LeftHandThumb1 -26.253704 0.000000 33.147579
Head 22.291905 59.727479 -31.609155
435
root 19.575272 34.577467 -10.317016 -4.187247 8.452657 -7.882243
RightUpLeg 14.915193 2.530561 29.672676
RightLeg -7.291788 -0.000000 0.000000
RightFoot -8.407018 -10.304975 3.811158
RightToeBase 5.659060 -0.000000 -0.000000
LeftUpLeg -24.751985 -23.035637 -1.902450
LeftLeg 16.085492 -0.000000 -0.000000
LeftFoot 10.070787 11.977061 -7.983472
LeftToeBase 9.841988 -0.000000 -0.000000
Spine 22.018532 -3.921581 -48.926072
RightShoulder -9.313674 4.771044 -48.083911
RightArm 29.965604 58.473536 11.990040
RightForeArm -6.965391 -0.000000 18.152220
RightHand 16.034777 -0.000000 -39.343074
RightHandThumb1 -24.326973 -0.000000 -32.862282
LeftShoulder -6.848414 35.887586 1.223131
LeftArm 35.803434 -9.633174 -62.769273
LeftForeArm 35.952671 0.000000 7.460358
LeftHand -19.132091 -0.000000 -8.440893
LeftHandThumb1 -26.253704 0.000000 33.147579
Head 22.981113 59.887028 -30.888407
436
root 19.585128 34.582356 -10.323542 -4.307931 8.415223 -7.872121
RightUpLeg 15.029092 2.546843 29.664884
RightLeg -7.295759 -0.000000 0.000000
RightFoot -8.383334 -10.356475 3.774627
RightToeBase 5.690561 -0.000000 -0.000000
LeftUpLeg -24.535998 -22.950162 -1.986495
LeftLeg 15.917171 -0.000000 -0.000000
LeftFoot 10.173878 11.953087 -7.962198
LeftToeBase 9.871219 -0.000000 -0.000000
Spine 22.007967 -3.887906 -48.914485
RightShoulder -9.365295 4.725239 -48.034235
RightArm 30.980787 59.148240 12.425409
RightForeArm -7.159733 -0.000000 18.247573
RightHand 15.877275 0.000000 -39.446792
RightHandThumb1 -24.326973 -0.000000 -32.862282
LeftShoulder -6.867856 35.974926 1.243933
LeftArm 35.806314 -9.587139 -62.809521
LeftForeArm 35.855019 -0.000000 7.509106
LeftHand -19.045590 -0.000000 -8.376429
LeftHandThumb1 -26.253704 0.000000 33.147579
Head 23.653947 59.950299 -30.180201
437
root 19.594596 34.589229 -10.328199 -4.421543 8.377626 -7.863812
RightUpLeg 15.144354 2.591026 29.657366
RightLeg -7.313315 -0.000000 0.000000
RightFoot -8.348037 -10.393598 3.828663
RightToeBase 5.736390 -0.000000 -0.000000
LeftUpLeg -24.305657 -22.874251 -2.060865
LeftLeg 15.711817 -0.000000 -0.000000
LeftFoot 10.278914 11.929035 -7.943605
LeftToeBase 9.914963 -0.000000 -0.000000
Spine 21.993018 -3.834394 -48.886041
RightShoulder -9.490651 4.614792 -47.953900
RightArm 31.982674 59.634224 12.669542
RightForeArm -6.736009 -0.000000 18.256300
RightHand 16.025486 -0.000000 -39.639570
RightHandThumb1 -24.326973 -0.000000 -32.862282
LeftShoulder -6.873619 35.979143 1.269584
LeftArm 35.747805 -9.512143 -62.813584
LeftForeArm 35.808023 0.000000 7.564185
LeftHand -18.928232 -0.000000 -8.484738
LeftHandThumb1 -26.253704 0.000000 33.147579
Head 24.336390 60.012116 -29.456690
438
root 19.604349 34.594255 -10.334913 -4.486986 8.364201 -7.846222
RightUpLeg 15.208572 2.627436 29.637088
RightLeg -7.328030 -0.000000 0.000000
RightFoot -8.313286 -10.432524 3.804023
RightToeBase 5.726473 -0.000000 -0.000000
LeftUpLeg -24.131807 -22.814518 -2.131958
LeftLeg 15.515738 -0.000000 -0.000000
LeftFoot 10.384141 11.901792 -7.903872
LeftToeBase 9.953190 -0.000000 -0.000000
Spine 21.942992 -3.825999 -48.854625
RightShoulder -9.550143 4.566940 -47.903138
RightArm 32.767092 60.120033 12.733008
RightForeArm -6.874631 -0.000000 18.314215
RightHand 16.142528 -0.000000 -39.895255
RightHandThumb1 -24.326973 -0.000000 -32.862282
LeftShoulder -6.858309 35.981689 1.291197
LeftArm 35.667001 -9.455379 -62.824791
LeftForeArm 35.845146 -0.000000 7.636416
LeftHand -18.900064 -0.000000 -8.667458
LeftHandThumb1 -26.253704 0.000000 33.147579
Head 25.056927 60.064520 -28.708875
439
root 19.613693 34.599141 -10.341089 -4.551246 8.362600 -7.821595
RightUpLeg 15.272471 2.629165 29.605926
RightLeg -7.351660 -0.000000 0.000000
RightFoot -8.304642 -10.450586 3.793614
RightToeBase 5.730826 -0.000000 -0.000000
LeftUpLeg -23.953885 -22.727248 -2.219490
LeftLeg 15.318522 -0.000000 -0.000000
LeftFoot 10.498807 11.832211 -7.868486
LeftToeBase 10.002500 -0.000000 -0.000000
Spine 21.906629 -3.807238 -48.822014
RightShoulder -9.640394 4.564079 -47.865312
RightArm 33.570814 60.559769 12.779991
RightForeArm -7.159986 -0.000000 18.394973
RightHand 16.150546 -0.000000 -39.936547
RightHandThumb1 -24.326973 -0.000000 -32.862282
LeftShoulder -6.918688 36.044108 1.257904
LeftArm 35.746710 -9.380092 -62.797628
LeftForeArm 35.834716 0.000000 7.623085
LeftHand -18.887463 -0.000000 -8.764485
LeftHandThumb1 -26.253704 0.000000 33.147579
Head 25.779211 60.114325 -27.904744
440
root 19.620835 34.603605 -10.346738 -4.604954 8.384355 -7.802946
RightUpLeg 15.330836 2.607796 29.577640
RightLeg -7.407147 -0.000000 0.000000
RightFoot -8.236741 -10.464075 3.737165
RightToeBase 5.305270 -0.000000 -0.000000
LeftUpLeg -23.790856 -22.664520 -2.293448
LeftLeg 15.123406 -0.000000 -0.000000
LeftFoot 10.598702 11.756772 -7.850767
LeftToeBase 10.035196 -0.000000 -0.000000
Spine 21.868306 -3.805729 -48.781168
RightShoulder -9.710255 4.457919 -47.799203
RightArm 34.081945 60.933830 12.498078
RightForeArm -7.492634 -0.000000 18.555521
RightHand 16.030620 -0.000000 -39.935056
RightHandThumb1 -24.326973 -0.000000 -32.862282
LeftShoulder -6.876082 36.032878 1.304707
LeftArm 35.669308 -9.308602 -62.806153
LeftForeArm 35.855100 0.000000 7.681369
LeftHand -18.961977 -0.000000 -8.770689
LeftHandThumb1 -26.253704 0.000000 33.147579
Head 26.507495 60.124442 -27.121693
441
root 19.629194 34.607827 -10.352826 -4.632514 8.412457 -7.768403
RightUpLeg 15.360457 2.602597 29.533783
RightLeg -7.434283 -0.000000 0.000000
RightFoot -8.237832 -10.497001 3.780017
RightToeBase 5.711376 -0.000000 -0.000000
LeftUpLeg -23.640811 -22.597626 -2.376005
LeftLeg 14.897062 -0.000000 -0.000000
LeftFoot 10.735539 11.675223 -7.818169
LeftToeBase 10.035782 -0.000000 -0.000000
Spine 21.826244 -3.821956 -48.764477
RightShoulder -9.830488 4.326983 -47.676999
RightArm 34.697656 61.287785 12.247169
RightForeArm -7.560441 -0.000000 18.744708
RightHand 15.800203 -0.000000 -39.620506
RightHandThumb1 -24.326973 -0.000000 -32.862282
LeftShoulder -6.917444 36.082471 1.311142
LeftArm 35.725990 -9.263674 -62.827122
LeftForeArm 35.893790 -0.000000 7.684508
LeftHand -18.975945 -0.000000 -8.829745
LeftHandThumb1 -26.253704 0.000000 33.147579
Head 27.047154 60.077180 -26.470417
442
root 19.639007 34.611626 -10.358108 -4.663807 8.456975 -7.719179
RightUpLeg 15.398619 2.599689 29.477652
RightLeg -7.479452 -0.000000 0.000000
RightFoot -8.243972 -10.549145 3.802865
RightToeBase 5.751852 -0.000000 -0.000000
LeftUpLeg -23.471823 -22.575764 -2.470066
LeftLeg 14.641728 -0.000000 -0.000000
LeftFoot 10.879371 11.627639 -7.799722
LeftToeBase 10.045858 -0.000000 -0.000000
Spine 21.814999 -3.819796 -48.744061
RightShoulder -9.943222 4.306799 -47.625175
RightArm 35.107900 61.599929 11.845510
RightForeArm -7.992771 -0.000000 18.931436
RightHand 15.709436 0.000000 -39.639597
RightHandThumb1 -24.326973 -0.000000 -32.862282
LeftShoulder -6.965180 36.112596 1.312320
LeftArm 35.801322 -9.210451 -62.844302
LeftForeArm 35.932481 -0.000000 7.695380
LeftHand -19.004743 -0.000000 -8.700267
LeftHandThumb1 -26.253704 0.000000 33.147579
Head 27.593821 60.057668 -25.805505
443
root 19.648145 34.614159 -10.363738 -4.686820 8.505564 -7.672704
RightUpLeg 15.419732 2.592196 29.427346
RightLeg -7.521342 -0.000000 0.000000
RightFoot -8.242446 -10.571939 3.714466
RightToeBase 5.314829 -0.000000 -0.000000
LeftUpLeg -23.321875 -22.567855 -2.556996
LeftLeg 14.405782 -0.000000 -0.000000
LeftFoot 10.990802 11.599141 -7.755226
LeftToeBase 10.110217 -0.000000 -0.000000
Spine 21.792089 -3.857873 -48.723779
RightShoulder -10.024061 4.215914 -47.544194
RightArm 35.453098 61.957406 11.291166
RightForeArm -8.372072 -0.000000 19.028075
RightHand 16.055424 -0.000000 -39.983220
RightHandThumb1 -24.326973 -0.000000 -32.862282
LeftShoulder -7.012155 36.111949 1.301419
LeftArm 35.814008 -9.193143 -62.889945
LeftForeArm 35.966441 0.000000 7.720430
LeftHand -19.043369 -0.000000 -8.686273
LeftHandThumb1 -26.253704 0.000000 33.147579
Head 28.138577 60.091866 -25.138368
